<?xml version="1.0" encoding="iso-8859-1"?>
<!-- Uploaded to: SVG Repo, www.svgrepo.com, Generator: SVG Repo Mixer Tools -->
<svg version="1.1" id="Layer_1" xmlns="http://www.w3.org/2000/svg" xmlns:xlink="http://www.w3.org/1999/xlink" 
	 viewBox="0 0 512.001 512.001" xml:space="preserve">
<polygon style="fill:#FFA22B;" points="191.998,342.473 123.909,501.801 56.501,434.393 170.209,320.684 "/>
<g>
	<path style="fill:#A18484;" d="M326.813,117.779L168.96,275.632c-12.096,12.096-12.096,31.707,0,43.804l23.037,23.037
		l161.146-161.146c10.278-10.278,10.278-26.94,0-37.217L326.813,117.779z"/>
	
		<rect x="315.089" y="59.615" transform="matrix(0.7071 -0.7071 0.7071 0.7071 61.8594 298.4237)" style="fill:#A18484;" width="152.14" height="29.853"/>
</g>
<g>
	<path style="fill:#570029;" d="M161.75,268.421c-7.778,7.776-12.061,18.116-12.061,29.114c0,8.13,2.347,15.896,6.708,22.537
		L49.289,427.18c-3.983,3.983-3.983,10.441,0,14.425l67.408,67.409c1.932,1.931,4.533,2.987,7.212,2.987
		c0.643,0,1.291-0.061,1.934-0.186c3.325-0.642,6.113-2.892,7.444-6.006l64.609-151.184l15.487,15.487
		c1.992,1.991,4.602,2.987,7.212,2.987s5.22-0.996,7.212-2.987l17.136-17.136c13.3-13.301,13.3-34.941,0-48.241l-0.392-0.392
		l115.805-115.805c13.567-13.568,14.195-35.236,1.905-49.567L462.712,38.519c3.983-3.983,3.983-10.441,0-14.425L441.605,2.987
		C439.693,1.075,437.099,0,434.393,0c-2.706,0-5.298,1.075-7.212,2.987L161.75,268.421z M120.457,483.925l-49.531-49.531
		l99.284-99.283l9.699,9.699L120.457,483.925z M230.518,319.159c5.347,5.346,5.347,14.046,0,19.394l-9.923,9.923l-10.088-10.088
		l19.62-19.62L230.518,319.159z M191.997,328.048l-15.824-15.824c-3.925-3.925-6.086-9.142-6.086-14.69s2.161-10.766,6.086-14.689
		l150.641-150.641l6.684,6.684l-90.828,90.827c-3.983,3.983-3.983,10.441,0,14.425c1.992,1.991,4.602,2.987,7.212,2.987
		s5.22-0.996,7.212-2.987l90.642-90.641c4.391,6.283,3.799,15.013-1.804,20.618L191.997,328.048z M347.921,124.463l-6.684-6.684
		l93.155-93.156l6.684,6.684L347.921,124.463z"/>
	<path style="fill:#570029;" d="M220.23,252.154l-4.125,4.126c-3.982,3.984-3.981,10.441,0.002,14.425
		c1.992,1.991,4.602,2.986,7.211,2.986c2.611,0,5.221-0.996,7.213-2.988l4.125-4.126c3.982-3.984,3.981-10.441-0.002-14.425
		C230.669,248.168,224.213,248.17,220.23,252.154z"/>
</g>
</svg>