<?xml version="1.0" encoding="iso-8859-1"?>
<!-- Uploaded to: SVG Repo, www.svgrepo.com, Generator: SVG Repo Mixer Tools -->
<svg height="800px" width="800px" version="1.1" id="Layer_1" xmlns="http://www.w3.org/2000/svg" xmlns:xlink="http://www.w3.org/1999/xlink" 
	 viewBox="0 0 512.002 512.002" xml:space="preserve">
<path style="fill:#FCBB29;" d="M256.038,432.581c5.471,4.014,6.099,11.952,1.301,16.739l-49.892,49.892
	c-5.942,5.942-15.607,5.819-21.425-0.258c-48.827-51.024-68.2-84.827-67.909-122.442c0.101-12.198,7.512-31.987,1.85-44.6
	l0.807-0.191c31.28-23.6,75.903-21.134,104.414,7.377l0.437,0.348c-6.29,3.139-16.84,9.205-20.024,15.864
	C193.365,382.353,235.487,417.502,256.038,432.581z"/>
<polygon style="fill:#808080;" points="218.199,183.404 262.193,227.398 210.665,278.926 166.682,234.932 "/>
<path style="fill:#B3B3B3;" d="M230.453,337.193c0,0-1.973,0.818-4.832,2.254l-0.437-0.348
	c-28.511-28.511-73.133-30.978-104.414-7.377l-0.807,0.191c-0.224-0.493-0.46-0.987-0.729-1.457
	c5.617-3.363,10.371-8.678,10.371-8.678c11.324-11.324,16.997-26.179,16.997-41.034c0-14.844-5.673-29.688-16.997-41.023
	l92.675-92.675l5.639,5.639l29.531,29.531l15.763,15.764l27.166,27.166l-20.439,20.439c-6.738,6.738-7.31,17.299-1.738,24.699
	c-8.353-6.514-20.495-6.077-28.365,1.558l-19.777,19.205c-6.391,6.211-9.631,14.485-9.631,22.771c0,7.59,2.702,15.192,8.162,21.246
	c0.639,0.706,1.301,1.357,1.996,1.973L230.453,337.193z M210.665,278.926l51.529-51.528l-43.994-43.994l-51.517,51.529
	L210.665,278.926z"/>
<polygon style="fill:#808080;" points="401.733,37.933 257.451,182.215 227.92,152.684 372.202,8.413 "/>
<g>
	<path style="fill:#333333;" d="M212.256,177.461l-51.525,51.525c-1.576,1.576-2.462,3.716-2.462,5.945s0.886,4.369,2.462,5.946
		l43.993,43.993c1.643,1.643,3.795,2.463,5.947,2.463c2.152,0,4.304-0.821,5.947-2.463l51.525-51.525
		c1.576-1.576,2.462-3.716,2.462-5.945s-0.886-4.369-2.462-5.946l-43.993-43.993C220.863,174.177,215.54,174.177,212.256,177.461z
		 M228.306,205.403l-28.098,28.098c-3.284,3.284-3.284,8.607,0,11.891c1.642,1.643,3.795,2.463,5.947,2.463
		c2.152,0,4.304-0.821,5.947-2.463l28.098-28.098l10.105,10.105l-39.634,39.633l-32.102-32.102l39.634-39.633L228.306,205.403z"/>
	<path style="fill:#333333;" d="M407.675,43.88c1.576-1.576,2.462-3.716,2.462-5.946c0-2.23-0.886-4.369-2.462-5.946L378.149,2.463
		c-3.285-3.284-8.608-3.284-11.892,0l-11.119,11.119l-4.435-4.435c-3.285-3.284-8.608-3.284-11.892,0
		c-3.284,3.284-3.284,8.608,0,11.892l4.435,4.435L227.908,140.812c-1.542-1.392-3.543-2.176-5.629-2.176
		c-2.23,0-4.368,0.886-5.947,2.463l-92.676,92.676c-1.576,1.576-2.462,3.716-2.462,5.945s0.886,4.369,2.462,5.946
		c3.177,3.177,5.858,6.716,8.03,10.513c-11.461,2.734-21.629,9.651-28.381,19.649c-2.598,3.849-1.585,9.076,2.264,11.675
		c1.443,0.974,3.079,1.441,4.698,1.441c2.7,0,5.351-1.297,6.977-3.703c4.725-6.997,12.036-11.661,20.194-13.087
		c0.489,2.813,0.752,5.684,0.752,8.598c0,13.253-5.162,25.713-14.532,35.084c-0.104,0.103-0.214,0.221-0.312,0.33
		c-0.04,0.044-4.026,4.441-8.432,7.085c-3.896,2.336-5.23,7.345-3.015,11.31c3.265,5.847,1.391,16.649-0.26,26.179
		c-0.973,5.611-1.893,10.912-1.931,15.712c-0.313,39.707,18.723,74.483,70.237,128.314c4.398,4.596,10.319,7.164,16.674,7.235
		c0.089,0.001,0.177,0.001,0.265,0.001c6.239,0,12.095-2.424,16.514-6.842l49.887-49.887c4.016-4.017,6.072-9.569,5.639-15.232
		c-0.434-5.675-3.316-10.863-7.91-14.233c-28.288-20.756-55.669-49.221-47.8-66.934c1.815-3.649,9.741-8.733,16.502-12.084
		c5.022,3.061,10.82,4.784,16.789,4.874c0.164,0.002,0.327,0.003,0.491,0.003c9.023,0,17.742-3.718,23.988-10.245l15.469-16.166
		c15.446-16.144,15.725-41.696,0.636-58.174l0,0c-0.833-0.909-4.269-6.132-4.269-8.15c0-2.796,1.089-5.426,3.066-7.404
		l20.435-20.435c3.284-3.284,3.284-8.607,0-11.891l-21.217-21.217l80.722-80.723c3.284-3.284,3.284-8.607,0-11.891
		c-3.285-3.284-8.608-3.284-11.892,0l-80.719,80.72l-3.876-3.876L407.675,43.88z M372.204,20.301l17.635,17.634L257.45,170.322
		l-17.635-17.634L372.204,20.301z M212.033,403.776c11.941,14.504,27.819,27.359,39.034,35.588c0.866,0.636,1.053,1.497,1.089,1.954
		c0.035,0.45-0.019,1.316-0.764,2.061l-49.887,49.886c-1.256,1.256-2.972,1.926-4.701,1.916c-1.794-0.02-3.466-0.747-4.708-2.045
		c-48.074-50.235-65.846-81.824-65.571-116.554c0.027-3.42,0.831-8.059,1.683-12.972c1.566-9.031,3.279-18.946,1.626-27.956
		c24.922-16.23,57.594-15.025,81.311,2.443c-5.384,3.671-10.606,8.306-13.132,13.587c-0.026,0.054-0.052,0.108-0.075,0.163
		C191.193,366.753,195.936,384.225,212.033,403.776z M274.305,313.625l-15.469,16.166c-3.185,3.328-7.513,5.13-12.077,5.053
		c-4.605-0.07-8.839-1.991-11.921-5.412c-4.208-4.671-6.197-10.548-6.013-16.355c4.413,1.914,9.168,2.909,13.973,2.909
		c4.458,0,8.956-0.849,13.257-2.594c4.303-1.747,6.376-6.651,4.629-10.954c-1.746-4.302-6.647-6.376-10.954-4.629
		c-4.699,1.906-9.845,1.762-14.307-0.198c0.169-0.175,0.321-0.36,0.496-0.53l19.779-19.202c2.495-2.422,5.752-3.741,9.211-3.741
		c0.133,0,0.268,0.002,0.401,0.006c3.609,0.105,6.938,1.63,9.376,4.293l0,0C283.818,288.403,283.649,303.86,274.305,313.625z
		 M273.999,239.634c-4.78,4.779-7.563,11.019-7.943,17.712c-0.083-0.003-0.165-0.011-0.249-0.013
		c-8.18-0.242-15.943,2.77-21.822,8.479l-19.779,19.202c-9.418,9.144-13.426,21.711-11.911,33.782
		c-11.481-6.525-24.357-10.437-37.723-11.319c-8.856-0.584-17.673,0.188-26.171,2.201c4.315-8.906,6.606-18.738,6.606-28.927
		c0-14.91-4.88-29.072-13.883-40.66l81.155-81.155l66.209,66.209L273.999,239.634z"/>
	<circle style="fill:#333333;" cx="150.293" cy="347.436" r="8.409"/>
	<circle style="fill:#333333;" cx="207.876" cy="448.991" r="8.409"/>
</g>
</svg>