<?xml version="1.0" encoding="iso-8859-1"?>
<!-- Uploaded to: SVG Repo, www.svgrepo.com, Generator: SVG Repo Mixer Tools -->
<svg height="800px" width="800px" version="1.1" id="Layer_1" xmlns="http://www.w3.org/2000/svg" xmlns:xlink="http://www.w3.org/1999/xlink" 
	 viewBox="0 0 511.999 511.999" xml:space="preserve">
<path style="fill:#FCBB29;" d="M133.017,329.72l24.669-0.709l1.126,26.517L91.346,506.933c-2.104,4.724-7.893,6.506-12.291,3.786
	l-52.296-32.346c-4.304-2.662-5.362-8.461-2.275-12.471l48.752-63.325c4.296-5.579,10.159-9.749,16.837-11.974l0,0
	c8.702-2.9,15.936-9.067,20.176-17.201L133.017,329.72z"/>
<g>
	<polygon style="fill:#666666;" points="281.145,269.809 242.728,308.238 217.117,282.627 208.419,291.326 234.029,316.936 
		208.951,342.003 217.647,350.703 247.077,321.286 289.845,278.506 	"/>
	<path style="fill:#666666;" d="M465.022,12.959l-9.673-9.685l-11.177,11.177l1.698,17.659l-54.327,54.327l-17.521-7.502
		c-2.311-0.989-4.993-0.473-6.77,1.305l-71.29,71.303l8.699,8.698l68.347-68.359l9.166,3.925l-78.803,78.803l11.308,11.308
		L489.288,11.308L477.98,0L465.022,12.959z"/>
</g>
<path style="fill:#808080;" d="M414.234,275.536l7.742,44.744c0.528,3.048-1.441,5.975-4.462,6.639
	c-49.836,10.952-103.334,1.304-146.762-28.922c-8.918-6.213-17.418-13.286-25.365-21.244l5.368-25.155l34.905-15.119
	c32.951,32.962,79.253,44.436,121.506,34.439C410.425,270.147,413.664,272.238,414.234,275.536z"/>
<path style="fill:#666666;" d="M413.029,319.068c-47.744,9.761-97.386-0.32-137.357-28.14c-7.362-5.127-19.496-15.973-26.001-22.153
	l8.581-11.041l15.12-22.664l1.779,1.968c22.177,24.549,52.273,40.851,85.104,44.927c15.158,1.882,30.702,1.264,46.004-2.016
	L413.029,319.068z"/>
<path style="fill:#FCBB29;" d="M227.92,342.17l17.99,62.142c1.773,6.124-1.308,12.606-7.175,15.099l-13.086,5.56
	c-6.417,2.727-13.829-0.276-16.538-6.703l-14.7-34.878c-3.125-7.393-8.881-13.371-16.163-16.754l-15.536-7.209l9.326-31.721
	l31.908-9.512L227.92,342.17z"/>
<path style="fill:#D39A29;" d="M236.627,410.639c-0.359,0.359-0.783,0.643-1.259,0.845l-13.086,5.56
	c-1.325,0.563-2.485,0.258-3.057,0.025c-0.574-0.232-1.618-0.819-2.178-2.147l-14.7-34.879c-3.972-9.399-11.241-16.932-20.47-21.219
	l-18.536-8.506l15.64-15.7l15.725-13.491l25.56,25.56l17.374,60.013C238.044,408.103,237.655,409.611,236.627,410.639z"/>
<path style="fill:#FCBB29;" d="M339.676,165.844l-49.537,49.537l-35.577-5.645l3.607-26.326l49.537-49.537
	c2.687-2.687,7.043-2.687,9.73,0l22.241,22.241C342.364,158.801,342.364,163.157,339.676,165.844z"/>
<path style="fill:#D39A29;" d="M333.805,159.973l-49.537,49.537l-29.043-4.608l-0.663,4.835l35.577,5.645l49.537-49.537
	c2.687-2.687,2.687-7.043,0-9.73l-5.871-5.871C336.492,152.93,336.492,157.286,333.805,159.973z"/>
<path style="fill:#4D4D4D;" d="M245.389,276.752l-21.416,21.429l-20.026,20.014l-41.233,41.233l-3.899-3.899l-25.795-25.808v-16.539
	c0-2.949,1.171-5.777,3.257-7.862L258.17,183.412l0.64,0.64l31.331,31.331l-4.477,21.097L245.389,276.752z"/>
<path style="fill:#808080;" d="M196.038,293.017C196.038,293.017,196.037,293.018,196.038,293.017l-17.826,17.813
	c-2.163,2.162-5.668,2.16-7.828-0.002c-2.16-2.163-2.159-5.667,0.001-7.827l0.001-0.001l17.825-17.812
	c2.163-2.162,5.668-2.16,7.828,0.002C198.199,287.351,198.199,290.856,196.038,293.017z"/>
</svg>